<?xml version="1.0" encoding="utf-8"?>
<!-- Generator: Adobe Illustrator 16.0.2, SVG Export Plug-In . SVG Version: 6.00 Build 0)  -->
<!DOCTYPE svg PUBLIC "-//W3C//DTD SVG 1.1//EN" "http://www.w3.org/Graphics/SVG/1.1/DTD/svg11.dtd">
<svg version="1.1" id="Layer_1" xmlns="http://www.w3.org/2000/svg" xmlns:xlink="http://www.w3.org/1999/xlink" x="0px" y="0px"
	 width="595.479px" height="117.197px" viewBox="0 0 595.479 117.197" enable-background="new 0 0 595.479 117.197"
	 xml:space="preserve">
<g id="Layer_2">
	<path fill="#060606" d="M58.599,0C26.188,0,0,26.189,0,58.599c0,32.409,26.188,58.599,58.599,58.599
		c32.408,0,58.598-26.189,58.598-58.599C117.197,26.189,91.007,0,58.599,0z M83.478,83.151c-7.202,7.202-16.695,7.202-17.35,7.202
		l0,0c-1.964,0-3.601-1.636-3.601-3.601c0-1.963,1.637-3.601,3.601-3.601c0,0,4.583,0,9.166-2.946
		c5.893-3.601,8.839-10.476,8.839-20.297c0-19.642-14.731-24.225-21.606-25.207v37.32c0,10.147-8.511,18.66-18.66,18.66
		s-18.66-8.512-18.66-18.66c0-1.965,1.636-3.602,3.601-3.602c1.964,0,3.601,1.637,3.601,3.602c0,6.219,5.238,11.457,11.458,11.457
		s11.458-5.237,11.458-11.457V30.445c0-1.964,1.636-3.601,3.601-3.601c0.327,0,32.736,0.328,32.736,33.064
		C91.662,69.729,89.043,77.585,83.478,83.151z"/>
	<g>
		<g>
			<path fill="#060606" d="M173.831,91.335c-10.803,0-19.969-6.875-21.934-17.351c0-0.327,0-0.654,0-1.31
				c0-2.619,1.965-4.583,4.583-4.583c2.292,0,3.928,1.637,4.583,3.601c1.637,6.22,5.565,10.804,12.767,10.804
				c9.167,0,12.768-5.893,12.768-15.059v-32.41c0-2.619,2.292-4.91,4.91-4.91s4.583,2.292,4.583,4.91v31.755
				C196.42,81.186,188.563,91.335,173.831,91.335z"/>
			<path fill="#060606" d="M226.209,91.335c-11.131,0-20.296-9.167-20.296-20.296c0-11.131,9.165-20.297,20.296-20.297
				s20.297,9.167,20.297,20.297C246.507,82.168,237.34,91.335,226.209,91.335z M226.209,58.599c-7.202,0-11.785,5.565-11.785,12.44
				s4.583,12.439,11.785,12.439c7.202,0,11.785-5.564,11.785-12.439S233.412,58.599,226.209,58.599z"/>
			<path fill="#060606" d="M262.221,41.576c-2.62,0-4.911-1.964-4.911-4.911c0-2.619,1.964-4.911,4.911-4.911
				c2.946,0,4.909,2.292,4.909,4.911C267.13,39.611,264.839,41.576,262.221,41.576z M262.221,91.008
				c-2.292,0-4.257-1.965-4.257-4.256V55.652c0-2.292,1.964-4.256,4.257-4.256c2.291,0,4.255,1.964,4.255,4.256v31.099
				C266.804,89.043,264.839,91.008,262.221,91.008z"/>
			<path fill="#060606" d="M314.271,91.008c-2.292,0-4.255-1.965-4.255-4.256V69.074c0-5.893-3.274-10.476-9.822-10.476
				c-6.547,0-10.148,4.91-10.148,10.803v17.35c0,2.292-1.964,4.256-4.255,4.256c-2.292,0-4.256-1.965-4.256-4.256V55.652
				c0-2.292,1.964-4.256,4.256-4.256c2.291,0,4.255,1.964,4.255,4.256v1.964c2.619-3.928,7.53-6.875,12.768-6.875
				c10.148,0,16.042,7.53,16.042,18.006v18.004C318.527,89.043,316.563,91.008,314.271,91.008z"/>
			<path fill="#060606" d="M354.864,90.353c0,0-3.927,0-15.712,0c-2.619,0-4.911-1.963-4.911-4.91V36.01
				c0-2.619,1.964-4.583,4.911-4.583h15.712c18.007,0,29.138,13.095,29.138,29.463S372.871,90.353,354.864,90.353z M354.538,40.266
				h-10.477v41.576h10.477c13.094,0,20.297-8.839,20.297-20.624C374.835,49.432,367.306,40.266,354.538,40.266z"/>
			<path fill="#060606" d="M426.887,73.657c0,0,0,0-27.173,0c0.328,5.893,5.239,10.476,11.459,10.476
				c4.583,0,8.51-1.964,11.457-4.91c0.654-0.655,1.31-0.655,1.964-0.655c0.982,0,1.965,0.655,2.947,1.31
				c0.326,0.655,0.654,1.309,0.654,1.964c0,0.982-0.328,1.964-1.309,2.947c-3.603,3.928-10.148,6.547-16.042,6.547
				c-11.131,0-20.297-9.167-20.297-20.296c0-11.131,8.84-20.297,19.969-20.297c11.131,0,19.314,8.512,19.314,19.969
				C430.159,72.675,428.523,73.657,426.887,73.657z M410.845,58.271c-5.892,0-10.148,3.928-10.803,9.494c13.421,0,21.605,0,21.605,0
				C420.665,62.199,416.41,58.271,410.845,58.271z"/>
			<path fill="#060606" d="M454.712,91.335c-4.255,0-9.82-1.31-14.078-3.928c-1.308-0.655-1.962-1.964-1.962-3.274
				c0-0.327,0.326-0.982,0.326-1.309c0.656-1.31,1.636-1.965,2.618-1.965c0.656,0,1.311,0.327,1.639,0.655
				c3.272,1.963,7.202,2.946,10.803,2.946c4.255,0,9.166-1.309,9.166-4.583c0-2.619-2.292-3.601-11.459-6.875
				c-7.527-2.619-11.457-5.893-11.457-11.457c0-6.547,6.548-10.804,15.059-10.804c5.894,0,9.494,1.31,13.095,2.947
				c1.637,0.655,2.291,1.964,2.291,3.273c0,0.328,0,0.655-0.326,1.31c-0.654,1.31-1.965,2.292-3.274,2.292
				c-0.326,0-0.982,0-1.309-0.328c-3.275-1.636-6.548-2.291-10.148-2.291c-4.584,0-7.53,0.981-7.53,3.928
				c0,2.946,2.293,3.601,8.84,5.565c8.185,2.619,13.748,5.237,13.748,12.112C471.408,86.097,465.515,91.335,454.712,91.335z"/>
			<path fill="#060606" d="M488.431,41.576c-2.619,0-4.911-1.964-4.911-4.911c0-2.619,1.964-4.911,4.911-4.911
				c2.946,0,4.911,2.292,4.911,4.911C493.342,39.611,491.377,41.576,488.431,41.576z M488.431,91.008
				c-2.291,0-4.256-1.965-4.256-4.256V55.652c0-2.292,1.965-4.256,4.256-4.256c2.292,0,4.255,1.964,4.255,4.256v31.099
				C493.014,89.043,491.049,91.008,488.431,91.008z"/>
			<path fill="#060606" d="M523.785,107.703c-5.565,0-9.492-0.654-13.749-2.619c-1.637-0.654-2.291-1.965-2.291-3.274
				c0-0.327,0-0.982,0.328-1.31c0-0.327,0.326-0.654,0.654-0.982c0.654-0.982,1.637-1.637,2.618-1.637c0.328,0,0.982,0,1.311,0.327
				c3.927,1.31,7.528,1.964,11.457,1.964c8.838,0,12.768-5.238,12.768-12.113c0-1.964,0-4.255,0-4.255
				c-1.965,3.601-6.874,6.875-12.439,6.875c-10.477,0-19.643-8.184-19.643-19.97c0-11.13,8.512-19.969,19.643-19.969
				c5.892,0,10.148,2.947,12.439,6.548v-1.637c0-2.292,1.964-4.256,4.255-4.256c2.292,0,4.257,1.964,4.257,4.256v31.754
				C545.064,98.537,537.863,107.703,523.785,107.703z M524.768,58.599c-7.202,0-11.785,5.238-11.785,12.112
				c0,6.875,4.583,12.44,11.785,12.44s11.785-5.238,11.785-12.44C536.553,63.509,531.97,58.599,524.768,58.599z"/>
			<path fill="#060606" d="M590.896,91.008c-2.293,0-4.257-1.965-4.257-4.256V69.074c0-5.893-3.273-10.476-9.821-10.476
				c-6.547,0-10.148,4.91-10.148,10.803v17.35c0,2.292-1.964,4.256-4.255,4.256s-4.255-1.965-4.255-4.256V55.652
				c0-2.292,1.964-4.256,4.255-4.256s4.255,1.964,4.255,4.256v1.964c2.619-3.928,7.53-6.875,12.768-6.875
				c10.148,0,16.042,7.53,16.042,18.006v18.004C595.151,89.043,593.187,91.008,590.896,91.008z"/>
		</g>
	</g>
</g>
</svg>
